<mxfile host="app.diagrams.net" modified="2024-01-24T00:45:03.537Z" agent="Mozilla/5.0 (iPhone; CPU iPhone OS 17_1_1 like Mac OS X) AppleWebKit/605.1.15 (KHTML, like Gecko) Version/17.1.1 Mobile/15E148 Safari/604.1" version="22.1.17" etag="X08qRfvMBh7rfrau-Ghl" type="github">
  <diagram name="ページ1" id="tcuaX_c0GotTV-VY6ycF">
    <mxGraphModel>
      <root>
        <mxCell id="0" />
        <mxCell id="1" parent="0" />
      </root>
    </mxGraphModel>
  </diagram>
</mxfile>
